<?xml version="1.0" encoding="UTF-8" standalone="no"?><svg xmlns:dc="http://purl.org/dc/elements/1.1/" xmlns:cc="http://web.resource.org/cc/" xmlns:rdf="http://www.w3.org/1999/02/22-rdf-syntax-ns#" xmlns:svg="http://www.w3.org/2000/svg" xmlns="http://www.w3.org/2000/svg" xmlns:xlink="http://www.w3.org/1999/xlink" xmlns:sodipodi="http://sodipodi.sourceforge.net/DTD/sodipodi-0.dtd" xmlns:inkscape="http://www.inkscape.org/namespaces/inkscape" version="1.0" width="1250" height="152" id="svg2" sodipodi:version="0.32" inkscape:version="0.44.1" sodipodi:docname="MiddleC-Keyboard.svg" sodipodi:docbase="G:\upload\wikipedia"><metadata id="metadata1981"><rdf:RDF><cc:Work rdf:about=""><dc:format>image/svg+xml</dc:format><dc:type rdf:resource="http://purl.org/dc/dcmitype/StillImage"/></cc:Work></rdf:RDF></metadata><sodipodi:namedview inkscape:window-height="573" inkscape:window-width="853" inkscape:pageshadow="2" inkscape:pageopacity="0.0" guidetolerance="10.0" gridtolerance="10.0" objecttolerance="10.0" borderopacity="1.0" bordercolor="#666666" pagecolor="#ffffff" id="base" inkscape:zoom="0.628" inkscape:cx="625" inkscape:cy="76" inkscape:window-x="66" inkscape:window-y="87" inkscape:current-layer="svg2"/><defs id="defs4"/><rect width="23" height="149" rx="2.4000001" ry="4.8000002" x="1.4999998" y="1.5118709" style="fill:white;fill-opacity:1;stroke:black;stroke-width:0.97625762;stroke-opacity:1" id="rect1872"/><use transform="translate(24,0)" id="use2768" x="0" y="0" width="744.09448" height="1052.3622" xlink:href="#rect1872"/><use transform="translate(48,0)" id="use3185" x="0" y="0" width="744.09448" height="1052.3622" xlink:href="#rect1872"/><use transform="translate(72,0)" id="use3187" x="0" y="0" width="744.09448" height="1052.3622" xlink:href="#rect1872"/><use transform="translate(96,0)" id="use3189" x="0" y="0" width="744.09448" height="1052.3622" xlink:href="#rect1872"/><use transform="translate(120,0)" id="use3191" x="0" y="0" width="744.09448" height="1052.3622" xlink:href="#rect1872"/><use transform="translate(144,0)" id="use3193" x="0" y="0" width="744.09448" height="1052.3622" xlink:href="#rect1872"/><use transform="translate(168,0)" id="use3195" x="0" y="0" width="744.09448" height="1052.3622" xlink:href="#rect1872"/><use transform="translate(192,0)" id="use3197" x="0" y="0" width="744.09448" height="1052.3622" xlink:href="#rect1872"/><use transform="translate(216,0)" id="use3199" x="0" y="0" width="744.09448" height="1052.3622" xlink:href="#rect1872"/><use transform="translate(240,0)" id="use3201" x="0" y="0" width="744.09448" height="1052.3622" xlink:href="#rect1872"/><use transform="translate(264,0)" id="use3203" x="0" y="0" width="744.09448" height="1052.3622" xlink:href="#rect1872"/><use transform="translate(288,0)" id="use3205" x="0" y="0" width="744.09448" height="1052.3622" xlink:href="#rect1872"/><use transform="translate(312,0)" id="use3207" x="0" y="0" width="744.09448" height="1052.3622" xlink:href="#rect1872"/><use transform="translate(336,0)" id="use3209" x="0" y="0" width="744.09448" height="1052.3622" xlink:href="#rect1872"/><use transform="translate(360,0)" id="use3211" x="0" y="0" width="744.09448" height="1052.3622" xlink:href="#rect1872"/><use transform="translate(384,0)" id="use3213" x="0" y="0" width="744.09448" height="1052.3622" xlink:href="#rect1872"/><use transform="translate(408,0)" id="use3215" x="0" y="0" width="744.09448" height="1052.3622" xlink:href="#rect1872"/><use transform="translate(432,0)" id="use3217" x="0" y="0" width="744.09448" height="1052.3622" xlink:href="#rect1872"/><use transform="translate(456,0)" id="use3219" x="0" y="0" width="744.09448" height="1052.3622" xlink:href="#rect1872"/><rect width="23" height="149" rx="2.4000001" ry="4.8000002" x="481.5" y="1.5118709" style="fill:white;fill-opacity:1;stroke:black;stroke-width:0.97625762;stroke-opacity:1" id="use3221"/><rect width="23" height="149" rx="2.4000001" ry="4.8000002" x="505.5" y="1.5118709" style="fill:white;fill-opacity:1;stroke:black;stroke-width:0.97625762;stroke-opacity:1" id="use3223"/><rect width="23" height="149" rx="2.4000001" ry="4.8000002" x="529.5" y="1.5118709" style="fill:white;fill-opacity:1;stroke:black;stroke-width:0.97625762;stroke-opacity:1" id="use3225"/><rect width="23" height="149" rx="2.4000001" ry="4.8000002" x="553.5" y="1.5118709" style="fill:#fc0;fill-opacity:1;stroke:black;stroke-width:0.97625762;stroke-opacity:1" id="use3227"/><rect width="23" height="149" rx="2.4000001" ry="4.8000002" x="577.5" y="1.5118709" style="fill:white;fill-opacity:1;stroke:black;stroke-width:0.97625762;stroke-opacity:1" id="use3229"/><rect width="23" height="149" rx="2.4000001" ry="4.8000002" x="601.5" y="1.5118709" style="fill:white;fill-opacity:1;stroke:black;stroke-width:0.97625762;stroke-opacity:1" id="use3231"/><rect width="23" height="149" rx="2.4000001" ry="4.8000002" x="625.5" y="1.5118709" style="fill:white;fill-opacity:1;stroke:black;stroke-width:0.97625762;stroke-opacity:1" id="use3233"/><rect width="23" height="149" rx="2.4000001" ry="4.8000002" x="649.5" y="1.5118709" style="fill:white;fill-opacity:1;stroke:black;stroke-width:0.97625762;stroke-opacity:1" id="use3235"/><rect width="23" height="149" rx="2.4000001" ry="4.8000002" x="673.5" y="1.5118709" style="fill:white;fill-opacity:1;stroke:black;stroke-width:0.97625762;stroke-opacity:1" id="use3237"/><rect width="23" height="149" rx="2.4000001" ry="4.8000002" x="697.5" y="1.5118709" style="fill:white;fill-opacity:1;stroke:black;stroke-width:0.97625762;stroke-opacity:1" id="use3239"/><rect width="23" height="149" rx="2.4000001" ry="4.8000002" x="721.5" y="1.5118709" style="fill:white;fill-opacity:1;stroke:black;stroke-width:0.97625762;stroke-opacity:1" id="use3241"/><rect width="23" height="149" rx="2.4000001" ry="4.8000002" x="745.5" y="1.5118709" style="fill:white;fill-opacity:1;stroke:black;stroke-width:0.97625762;stroke-opacity:1" id="use3243"/><rect width="23" height="149" rx="2.4000001" ry="4.8000002" x="769.5" y="1.5118709" style="fill:white;fill-opacity:1;stroke:black;stroke-width:0.97625762;stroke-opacity:1" id="use3245"/><rect width="23" height="149" rx="2.4000001" ry="4.8000002" x="793.5" y="1.5118709" style="fill:white;fill-opacity:1;stroke:black;stroke-width:0.97625762;stroke-opacity:1" id="use3247"/><use transform="translate(816,0)" id="use3249" x="0" y="0" width="744.09448" height="1052.3622" xlink:href="#rect1872"/><use transform="translate(840,0)" id="use3251" x="0" y="0" width="744.09448" height="1052.3622" xlink:href="#rect1872"/><use transform="translate(864,0)" id="use3253" x="0" y="0" width="744.09448" height="1052.3622" xlink:href="#rect1872"/><use transform="translate(888,0)" id="use3255" x="0" y="0" width="744.09448" height="1052.3622" xlink:href="#rect1872"/><use transform="translate(912,0)" id="use3257" x="0" y="0" width="744.09448" height="1052.3622" xlink:href="#rect1872"/><use transform="translate(936,0)" id="use3259" x="0" y="0" width="744.09448" height="1052.3622" xlink:href="#rect1872"/><use transform="translate(960,0)" id="use3261" x="0" y="0" width="744.09448" height="1052.3622" xlink:href="#rect1872"/><use transform="translate(984,0)" id="use3263" x="0" y="0" width="744.09448" height="1052.3622" xlink:href="#rect1872"/><use transform="translate(1008,0)" id="use3265" x="0" y="0" width="744.09448" height="1052.3622" xlink:href="#rect1872"/><use transform="translate(1032,0)" id="use3267" x="0" y="0" width="744.09448" height="1052.3622" xlink:href="#rect1872"/><use transform="translate(1056,0)" id="use3269" x="0" y="0" width="744.09448" height="1052.3622" xlink:href="#rect1872"/><use transform="translate(1080,0)" id="use3271" x="0" y="0" width="744.09448" height="1052.3622" xlink:href="#rect1872"/><use transform="translate(1104,0)" id="use3273" x="0" y="0" width="744.09448" height="1052.3622" xlink:href="#rect1872"/><use transform="translate(1128,0)" id="use3275" x="0" y="0" width="744.09448" height="1052.3622" xlink:href="#rect1872"/><use transform="translate(1152,0)" id="use3277" x="0" y="0" width="744.09448" height="1052.3622" xlink:href="#rect1872"/><use transform="translate(1176,0)" id="use3279" x="0" y="0" width="744.09448" height="1052.3622" xlink:href="#rect1872"/><use transform="translate(1200,0)" id="use3281" x="0" y="0" width="744.09448" height="1052.3622" xlink:href="#rect1872"/><use transform="translate(1224,0)" id="use3283" x="0" y="0" width="744.09448" height="1052.3622" xlink:href="#rect1872"/><rect width="8.5374079" height="98.537407" rx="1" ry="1" x="20.743168" y="1.7312964" style="fill:black;fill-opacity:1;stroke:black;stroke-width:1.46259189;stroke-opacity:1" id="rect3340"/><use transform="translate(48,0)" id="use4120" x="0" y="0" width="1247.9763" height="149.97626" xlink:href="#rect3340"/><use transform="translate(72,0)" id="use4122" x="0" y="0" width="1247.9763" height="149.97626" xlink:href="#rect3340"/><use transform="translate(120,0)" id="use4126" x="0" y="0" width="1247.9763" height="149.97626" xlink:href="#rect3340"/><use transform="translate(144,0)" id="use4128" x="0" y="0" width="1247.9763" height="149.97626" xlink:href="#rect3340"/><use transform="translate(168,0)" id="use4130" x="0" y="0" width="1247.9763" height="149.97626" xlink:href="#rect3340"/><use transform="translate(216,0)" id="use4134" x="0" y="0" width="1247.9763" height="149.97626" xlink:href="#rect3340"/><use transform="translate(240,0)" id="use4136" x="0" y="0" width="1247.9763" height="149.97626" xlink:href="#rect3340"/><use transform="translate(288,0)" id="use4140" x="0" y="0" width="1247.9763" height="149.97626" xlink:href="#rect3340"/><use transform="translate(312,0)" id="use4142" x="0" y="0" width="1247.9763" height="149.97626" xlink:href="#rect3340"/><use transform="translate(336,0)" id="use4144" x="0" y="0" width="1247.9763" height="149.97626" xlink:href="#rect3340"/><use transform="translate(384,0)" id="use4148" x="0" y="0" width="1247.9763" height="149.97626" xlink:href="#rect3340"/><use transform="translate(408,0)" id="use4150" x="0" y="0" width="1247.9763" height="149.97626" xlink:href="#rect3340"/><use transform="translate(456,0)" id="use4154" x="0" y="0" width="1247.9763" height="149.97626" xlink:href="#rect3340"/><use transform="translate(480,0)" id="use4156" x="0" y="0" width="1247.9763" height="149.97626" xlink:href="#rect3340"/><use transform="translate(504,0)" id="use4158" x="0" y="0" width="1247.9763" height="149.97626" xlink:href="#rect3340"/><use transform="translate(552,0)" id="use4162" x="0" y="0" width="1247.9763" height="149.97626" xlink:href="#rect3340"/><use transform="translate(576,0)" id="use4164" x="0" y="0" width="1247.9763" height="149.97626" xlink:href="#rect3340"/><use transform="translate(624,0)" id="use4168" x="0" y="0" width="1247.9763" height="149.97626" xlink:href="#rect3340"/><use transform="translate(648,0)" id="use4170" x="0" y="0" width="1247.9763" height="149.97626" xlink:href="#rect3340"/><use transform="translate(672,0)" id="use4172" x="0" y="0" width="1247.9763" height="149.97626" xlink:href="#rect3340"/><use transform="translate(720,0)" id="use4176" x="0" y="0" width="1247.9763" height="149.97626" xlink:href="#rect3340"/><use transform="translate(744,0)" id="use4178" x="0" y="0" width="1247.9763" height="149.97626" xlink:href="#rect3340"/><use transform="translate(792,0)" id="use4182" x="0" y="0" width="1247.9763" height="149.97626" xlink:href="#rect3340"/><use transform="translate(816,0)" id="use4184" x="0" y="0" width="1247.9763" height="149.97626" xlink:href="#rect3340"/><use transform="translate(840,0)" id="use4186" x="0" y="0" width="1247.9763" height="149.97626" xlink:href="#rect3340"/><use transform="translate(888,0)" id="use4190" x="0" y="0" width="1247.9763" height="149.97626" xlink:href="#rect3340"/><use transform="translate(912,0)" id="use4192" x="0" y="0" width="1247.9763" height="149.97626" xlink:href="#rect3340"/><use transform="translate(960,0)" id="use4196" x="0" y="0" width="1247.9763" height="149.97626" xlink:href="#rect3340"/><use transform="translate(984,0)" id="use4198" x="0" y="0" width="1247.9763" height="149.97626" xlink:href="#rect3340"/><use transform="translate(1008,0)" id="use4200" x="0" y="0" width="1247.9763" height="149.97626" xlink:href="#rect3340"/><use transform="translate(1056,0)" id="use4204" x="0" y="0" width="1247.9763" height="149.97626" xlink:href="#rect3340"/><use transform="translate(1080,0)" id="use4206" x="0" y="0" width="1247.9763" height="149.97626" xlink:href="#rect3340"/><use transform="translate(1128,0)" id="use4210" x="0" y="0" width="1247.9763" height="149.97626" xlink:href="#rect3340"/><use transform="translate(1152,0)" id="use4212" x="0" y="0" width="1247.9763" height="149.97626" xlink:href="#rect3340"/><use transform="translate(1176,0)" id="use4214" x="0" y="0" width="1247.9763" height="149.97626" xlink:href="#rect3340"/></svg>