<svg width="512" height="512" viewBox="0 0 512 512" fill="none" xmlns="http://www.w3.org/2000/svg"><rect width="512" height="512" fill="#202227"/><path d="M125.088 388.056L198.454 303.397" stroke="#475644" stroke-width="20" stroke-linecap="round"/><path d="M240.702 150.541L198.454 303.397" stroke="#475644" stroke-width="20" stroke-linecap="round"/><path d="M351.265 272.279L198.461 303.922" stroke="#475644" stroke-width="20" stroke-linecap="round"/><path d="M350.808 271.847L293.382 404.936" stroke="#475644" stroke-width="20" stroke-linecap="round"/><path d="M350.808 271.847L438.957 315.67" stroke="#475644" stroke-width="20" stroke-linecap="round"/><path d="M350.808 271.847L389.759 135.193" stroke="#475644" stroke-width="20" stroke-linecap="round"/><path d="M240.702 150.541L389.759 135.193" stroke="#475644" stroke-width="20" stroke-linecap="round"/><path d="M240.702 150.541L350.808 271.847" stroke="#475644" stroke-width="20" stroke-linecap="round"/><path d="M240.702 150.541L219.65 81" stroke="#475644" stroke-width="20" stroke-linecap="round"/><path d="M240.702 150.541L96.0001 201.199" stroke="#475644" stroke-width="20" stroke-linecap="round"/><path d="M96 201.199L219.65 81" stroke="#77B86A" stroke-width="20" stroke-linecap="round"/><path d="M219.65 81.0001L389.759 135.193" stroke="#77B86A" stroke-width="20" stroke-linecap="round"/><path d="M219.65 81.0001L354.386 192.771" stroke="#77B86A" stroke-width="20" stroke-linecap="round"/><path d="M96 201.199L125.088 388.056" stroke="#77B86A" stroke-width="20" stroke-linecap="round"/><path d="M135.422 238.115L125.088 388.056" stroke="#77B86A" stroke-width="20" stroke-linecap="round"/><path d="M135.422 238.115L96 201.199" stroke="#77B86A" stroke-width="20" stroke-linecap="round"/><path d="M134.85 238.343L354.284 192.902" stroke="#77B86A" stroke-width="20" stroke-linecap="round"/><path d="M389.759 135.193L354.386 192.771" stroke="#77B86A" stroke-width="20" stroke-linecap="round"/><path d="M389.759 135.193L439 315.658" stroke="#77B86A" stroke-width="20" stroke-linecap="round"/><path d="M354.386 192.771L439 315.658" stroke="#77B86A" stroke-width="20" stroke-linecap="round"/><path d="M354.386 192.771L293.382 404.936" stroke="#77B86A" stroke-width="20" stroke-linecap="round"/><path d="M438.957 315.67L293.382 404.936" stroke="#77B86A" stroke-width="20" stroke-linecap="round"/><path d="M135.422 238.115L293.382 404.936" stroke="#77B86A" stroke-width="20" stroke-linecap="round"/><path d="M125.088 388.056L293.382 404.936" stroke="#77B86A" stroke-width="20" stroke-linecap="round"/><path d="M219.796 81.7087L135.569 238.823" stroke="#77B86A" stroke-width="20" stroke-linecap="round"/><path d="M219.65 81.0001L135.422 238.115" stroke="#77B86A" stroke-width="20" stroke-linecap="round"/></svg>